<?xml version="1.0" encoding="UTF-8" standalone="no"?>
<!DOCTYPE svg PUBLIC "-//W3C//DTD SVG 1.1//EN"
 "http://www.w3.org/Graphics/SVG/1.1/DTD/svg11.dtd">
<!-- Generated by graphviz version 2.38.0 (20140413.2041)
 -->
<!-- Title: %3 Pages: 1 -->
<svg width="1165pt" height="476pt"
 viewBox="0.00 0.00 1165.48 476.00" xmlns="http://www.w3.org/2000/svg" xmlns:xlink="http://www.w3.org/1999/xlink">
<g id="graph0" class="graph" transform="scale(1 1) rotate(0) translate(4 472)">
<title>%3</title>
<polygon fill="white" stroke="none" points="-4,4 -4,-472 1161.48,-472 1161.48,4 -4,4"/>
<!-- [root] azurerm_public_ip.thisIp -->
<g id="node1" class="node"><title>[root] azurerm_public_ip.thisIp</title>
<polygon fill="none" stroke="black" points="576.841,-324 380.841,-324 380.841,-288 576.841,-288 576.841,-324"/>
<text text-anchor="middle" x="478.841" y="-302.3" font-family="Times,serif" font-size="14.00">azurerm_public_ip.thisIp</text>
</g>
<!-- [root] azurerm_resource_group.thisGroup -->
<g id="node2" class="node"><title>[root] azurerm_resource_group.thisGroup</title>
<polygon fill="none" stroke="black" points="789.841,-180 517.841,-180 517.841,-144 789.841,-144 789.841,-180"/>
<text text-anchor="middle" x="653.841" y="-158.3" font-family="Times,serif" font-size="14.00">azurerm_resource_group.thisGroup</text>
</g>
<!-- [root] azurerm_public_ip.thisIp&#45;&gt;[root] azurerm_resource_group.thisGroup -->
<g id="edge1" class="edge"><title>[root] azurerm_public_ip.thisIp&#45;&gt;[root] azurerm_resource_group.thisGroup</title>
<path fill="none" stroke="black" d="M477.781,-287.712C477.533,-267.966 480.204,-235.836 497.841,-216 510.466,-201.802 527.041,-191.404 544.667,-183.789"/>
<polygon fill="black" stroke="black" points="545.99,-187.03 553.965,-180.056 543.381,-180.534 545.99,-187.03"/>
</g>
<!-- [root] provider.azurerm -->
<g id="node5" class="node"><title>[root] provider.azurerm</title>
<polygon fill="none" stroke="black" points="413.841,-108 284.977,-90 413.841,-72 542.706,-90 413.841,-108"/>
<text text-anchor="middle" x="413.841" y="-86.3" font-family="Times,serif" font-size="14.00">provider.azurerm</text>
</g>
<!-- [root] azurerm_resource_group.thisGroup&#45;&gt;[root] provider.azurerm -->
<g id="edge2" class="edge"><title>[root] azurerm_resource_group.thisGroup&#45;&gt;[root] provider.azurerm</title>
<path fill="none" stroke="black" d="M595.438,-143.966C554.934,-132.152 501.586,-116.592 463.206,-105.398"/>
<polygon fill="black" stroke="black" points="463.875,-101.947 453.295,-102.507 461.915,-108.667 463.875,-101.947"/>
</g>
<!-- [root] var.location -->
<g id="node6" class="node"><title>[root] var.location</title>
<ellipse fill="none" stroke="black" cx="653.841" cy="-90" rx="93.6835" ry="18"/>
<text text-anchor="middle" x="653.841" y="-86.3" font-family="Times,serif" font-size="14.00">[root] var.location</text>
</g>
<!-- [root] azurerm_resource_group.thisGroup&#45;&gt;[root] var.location -->
<g id="edge3" class="edge"><title>[root] azurerm_resource_group.thisGroup&#45;&gt;[root] var.location</title>
<path fill="none" stroke="black" d="M653.841,-143.697C653.841,-135.983 653.841,-126.712 653.841,-118.112"/>
<polygon fill="black" stroke="black" points="657.342,-118.104 653.841,-108.104 650.342,-118.104 657.342,-118.104"/>
</g>
<!-- [root] var.rg -->
<g id="node7" class="node"><title>[root] var.rg</title>
<ellipse fill="none" stroke="black" cx="832.841" cy="-90" rx="66.8882" ry="18"/>
<text text-anchor="middle" x="832.841" y="-86.3" font-family="Times,serif" font-size="14.00">[root] var.rg</text>
</g>
<!-- [root] azurerm_resource_group.thisGroup&#45;&gt;[root] var.rg -->
<g id="edge4" class="edge"><title>[root] azurerm_resource_group.thisGroup&#45;&gt;[root] var.rg</title>
<path fill="none" stroke="black" d="M697.63,-143.876C724.757,-133.268 759.543,-119.664 787.038,-108.912"/>
<polygon fill="black" stroke="black" points="788.397,-112.139 796.435,-105.237 785.847,-105.62 788.397,-112.139"/>
</g>
<!-- [root] azurerm_subnet.thisSubnet -->
<g id="node3" class="node"><title>[root] azurerm_subnet.thisSubnet</title>
<polygon fill="none" stroke="black" points="810.341,-324 595.341,-324 595.341,-288 810.341,-288 810.341,-324"/>
<text text-anchor="middle" x="702.841" y="-302.3" font-family="Times,serif" font-size="14.00">azurerm_subnet.thisSubnet</text>
</g>
<!-- [root] azurerm_virtual_network.thisNetwork -->
<g id="node4" class="node"><title>[root] azurerm_virtual_network.thisNetwork</title>
<polygon fill="none" stroke="black" points="800.341,-252 507.341,-252 507.341,-216 800.341,-216 800.341,-252"/>
<text text-anchor="middle" x="653.841" y="-230.3" font-family="Times,serif" font-size="14.00">azurerm_virtual_network.thisNetwork</text>
</g>
<!-- [root] azurerm_subnet.thisSubnet&#45;&gt;[root] azurerm_virtual_network.thisNetwork -->
<g id="edge5" class="edge"><title>[root] azurerm_subnet.thisSubnet&#45;&gt;[root] azurerm_virtual_network.thisNetwork</title>
<path fill="none" stroke="black" d="M690.729,-287.697C684.973,-279.474 677.98,-269.483 671.636,-260.421"/>
<polygon fill="black" stroke="black" points="674.416,-258.29 665.814,-252.104 668.682,-262.304 674.416,-258.29"/>
</g>
<!-- [root] azurerm_virtual_network.thisNetwork&#45;&gt;[root] azurerm_resource_group.thisGroup -->
<g id="edge6" class="edge"><title>[root] azurerm_virtual_network.thisNetwork&#45;&gt;[root] azurerm_resource_group.thisGroup</title>
<path fill="none" stroke="black" d="M653.841,-215.697C653.841,-207.983 653.841,-198.712 653.841,-190.112"/>
<polygon fill="black" stroke="black" points="657.342,-190.104 653.841,-180.104 650.342,-190.104 657.342,-190.104"/>
</g>
<!-- [root] var.client_id -->
<g id="node12" class="node"><title>[root] var.client_id</title>
<ellipse fill="none" stroke="black" cx="96.8414" cy="-18" rx="96.6831" ry="18"/>
<text text-anchor="middle" x="96.8414" y="-14.3" font-family="Times,serif" font-size="14.00">[root] var.client_id</text>
</g>
<!-- [root] provider.azurerm&#45;&gt;[root] var.client_id -->
<g id="edge14" class="edge"><title>[root] provider.azurerm&#45;&gt;[root] var.client_id</title>
<path fill="none" stroke="black" d="M366.383,-78.5203C313.373,-66.8146 227.062,-47.7552 166.421,-34.3646"/>
<polygon fill="black" stroke="black" points="167.062,-30.9218 156.542,-32.1832 165.552,-37.7572 167.062,-30.9218"/>
</g>
<!-- [root] var.secret -->
<g id="node13" class="node"><title>[root] var.secret</title>
<ellipse fill="none" stroke="black" cx="297.841" cy="-18" rx="85.5853" ry="18"/>
<text text-anchor="middle" x="297.841" y="-14.3" font-family="Times,serif" font-size="14.00">[root] var.secret</text>
</g>
<!-- [root] provider.azurerm&#45;&gt;[root] var.secret -->
<g id="edge15" class="edge"><title>[root] provider.azurerm&#45;&gt;[root] var.secret</title>
<path fill="none" stroke="black" d="M390.924,-75.1703C374.508,-65.264 352.086,-51.7335 333.361,-40.4345"/>
<polygon fill="black" stroke="black" points="335.152,-37.4274 324.782,-35.2574 331.536,-43.4207 335.152,-37.4274"/>
</g>
<!-- [root] var.subscription_id -->
<g id="node14" class="node"><title>[root] var.subscription_id</title>
<ellipse fill="none" stroke="black" cx="529.841" cy="-18" rx="128.077" ry="18"/>
<text text-anchor="middle" x="529.841" y="-14.3" font-family="Times,serif" font-size="14.00">[root] var.subscription_id</text>
</g>
<!-- [root] provider.azurerm&#45;&gt;[root] var.subscription_id -->
<g id="edge16" class="edge"><title>[root] provider.azurerm&#45;&gt;[root] var.subscription_id</title>
<path fill="none" stroke="black" d="M436.759,-75.1703C452.874,-65.4458 474.776,-52.2289 493.287,-41.0588"/>
<polygon fill="black" stroke="black" points="495.308,-43.9273 502.061,-35.764 491.691,-37.934 495.308,-43.9273"/>
</g>
<!-- [root] var.tenant -->
<g id="node15" class="node"><title>[root] var.tenant</title>
<ellipse fill="none" stroke="black" cx="762.841" cy="-18" rx="87.1846" ry="18"/>
<text text-anchor="middle" x="762.841" y="-14.3" font-family="Times,serif" font-size="14.00">[root] var.tenant</text>
</g>
<!-- [root] provider.azurerm&#45;&gt;[root] var.tenant -->
<g id="edge17" class="edge"><title>[root] provider.azurerm&#45;&gt;[root] var.tenant</title>
<path fill="none" stroke="black" d="M463.845,-78.9707C523.813,-66.9427 624.711,-46.7052 692.513,-33.1059"/>
<polygon fill="black" stroke="black" points="693.567,-36.4644 702.683,-31.0661 692.19,-29.6011 693.567,-36.4644"/>
</g>
<!-- [root] meta.count&#45;boundary (count boundary fixup) -->
<g id="node8" class="node"><title>[root] meta.count&#45;boundary (count boundary fixup)</title>
<ellipse fill="none" stroke="black" cx="897.841" cy="-378" rx="247.756" ry="18"/>
<text text-anchor="middle" x="897.841" y="-374.3" font-family="Times,serif" font-size="14.00">[root] meta.count&#45;boundary (count boundary fixup)</text>
</g>
<!-- [root] meta.count&#45;boundary (count boundary fixup)&#45;&gt;[root] azurerm_public_ip.thisIp -->
<g id="edge7" class="edge"><title>[root] meta.count&#45;boundary (count boundary fixup)&#45;&gt;[root] azurerm_public_ip.thisIp</title>
<path fill="none" stroke="black" d="M804.071,-361.334C739.823,-350.601 654.415,-336.332 587.244,-325.11"/>
<polygon fill="black" stroke="black" points="587.489,-321.603 577.049,-323.407 586.336,-328.507 587.489,-321.603"/>
</g>
<!-- [root] meta.count&#45;boundary (count boundary fixup)&#45;&gt;[root] azurerm_subnet.thisSubnet -->
<g id="edge8" class="edge"><title>[root] meta.count&#45;boundary (count boundary fixup)&#45;&gt;[root] azurerm_subnet.thisSubnet</title>
<path fill="none" stroke="black" d="M851.134,-360.233C823.802,-350.422 789.081,-337.958 760.109,-327.557"/>
<polygon fill="black" stroke="black" points="761.117,-324.201 750.522,-324.116 758.752,-330.789 761.117,-324.201"/>
</g>
<!-- [root] output.Resource Group Info -->
<g id="node9" class="node"><title>[root] output.Resource Group Info</title>
<ellipse fill="none" stroke="black" cx="987.841" cy="-234" rx="169.77" ry="18"/>
<text text-anchor="middle" x="987.841" y="-230.3" font-family="Times,serif" font-size="14.00">[root] output.Resource Group Info</text>
</g>
<!-- [root] meta.count&#45;boundary (count boundary fixup)&#45;&gt;[root] output.Resource Group Info -->
<g id="edge9" class="edge"><title>[root] meta.count&#45;boundary (count boundary fixup)&#45;&gt;[root] output.Resource Group Info</title>
<path fill="none" stroke="black" d="M897.988,-359.922C898.902,-340.948 902.69,-310.082 916.841,-288 924.589,-275.911 936.126,-265.592 947.659,-257.359"/>
<polygon fill="black" stroke="black" points="949.665,-260.228 956.002,-251.737 945.753,-254.423 949.665,-260.228"/>
</g>
<!-- [root] var.prefix -->
<g id="node10" class="node"><title>[root] var.prefix</title>
<ellipse fill="none" stroke="black" cx="1008.84" cy="-306" rx="83.3857" ry="18"/>
<text text-anchor="middle" x="1008.84" y="-302.3" font-family="Times,serif" font-size="14.00">[root] var.prefix</text>
</g>
<!-- [root] meta.count&#45;boundary (count boundary fixup)&#45;&gt;[root] var.prefix -->
<g id="edge10" class="edge"><title>[root] meta.count&#45;boundary (count boundary fixup)&#45;&gt;[root] var.prefix</title>
<path fill="none" stroke="black" d="M924.711,-360.055C939.653,-350.632 958.407,-338.805 974.414,-328.711"/>
<polygon fill="black" stroke="black" points="976.392,-331.602 982.983,-323.307 972.658,-325.681 976.392,-331.602"/>
</g>
<!-- [root] output.Resource Group Info&#45;&gt;[root] azurerm_resource_group.thisGroup -->
<g id="edge11" class="edge"><title>[root] output.Resource Group Info&#45;&gt;[root] azurerm_resource_group.thisGroup</title>
<path fill="none" stroke="black" d="M914.956,-217.725C864.993,-207.253 798.343,-193.285 744.886,-182.081"/>
<polygon fill="black" stroke="black" points="745.571,-178.649 735.065,-180.023 744.135,-185.5 745.571,-178.649"/>
</g>
<!-- [root] provider.azurerm (close) -->
<g id="node11" class="node"><title>[root] provider.azurerm (close)</title>
<ellipse fill="none" stroke="black" cx="478.841" cy="-378" rx="153.273" ry="18"/>
<text text-anchor="middle" x="478.841" y="-374.3" font-family="Times,serif" font-size="14.00">[root] provider.azurerm (close)</text>
</g>
<!-- [root] provider.azurerm (close)&#45;&gt;[root] azurerm_public_ip.thisIp -->
<g id="edge12" class="edge"><title>[root] provider.azurerm (close)&#45;&gt;[root] azurerm_public_ip.thisIp</title>
<path fill="none" stroke="black" d="M478.841,-359.697C478.841,-351.983 478.841,-342.712 478.841,-334.112"/>
<polygon fill="black" stroke="black" points="482.342,-334.104 478.841,-324.104 475.342,-334.104 482.342,-334.104"/>
</g>
<!-- [root] provider.azurerm (close)&#45;&gt;[root] azurerm_subnet.thisSubnet -->
<g id="edge13" class="edge"><title>[root] provider.azurerm (close)&#45;&gt;[root] azurerm_subnet.thisSubnet</title>
<path fill="none" stroke="black" d="M529.951,-361.028C562.152,-350.965 604.001,-337.887 638.461,-327.119"/>
<polygon fill="black" stroke="black" points="639.932,-330.326 648.433,-324.003 637.844,-323.645 639.932,-330.326"/>
</g>
<!-- [root] root -->
<g id="node16" class="node"><title>[root] root</title>
<ellipse fill="none" stroke="black" cx="687.841" cy="-450" rx="58.4896" ry="18"/>
<text text-anchor="middle" x="687.841" y="-446.3" font-family="Times,serif" font-size="14.00">[root] root</text>
</g>
<!-- [root] root&#45;&gt;[root] meta.count&#45;boundary (count boundary fixup) -->
<g id="edge18" class="edge"><title>[root] root&#45;&gt;[root] meta.count&#45;boundary (count boundary fixup)</title>
<path fill="none" stroke="black" d="M726.359,-436.161C757.53,-425.771 801.98,-410.954 837.814,-399.009"/>
<polygon fill="black" stroke="black" points="839.295,-402.205 847.675,-395.722 837.081,-395.564 839.295,-402.205"/>
</g>
<!-- [root] root&#45;&gt;[root] provider.azurerm (close) -->
<g id="edge19" class="edge"><title>[root] root&#45;&gt;[root] provider.azurerm (close)</title>
<path fill="none" stroke="black" d="M649.508,-436.161C618.054,-425.626 573.015,-410.541 537.102,-398.513"/>
<polygon fill="black" stroke="black" points="537.827,-395.065 527.233,-395.208 535.604,-401.703 537.827,-395.065"/>
</g>
</g>
</svg>
